<mxfile host="drawio-plugin" modified="2022-10-27T15:05:20.102Z" agent="5.0 (Macintosh; Intel Mac OS X 10_15_7) AppleWebKit/537.36 (KHTML, like Gecko) Chrome/98.0.4758.102 Safari/537.36" etag="P0WBO11svlJLS8A3EKkz" version="15.5.4" type="embed"><diagram id="pjnvk4wZ6ffWbnYm2ZbK" name="Page-1"><mxGraphModel dx="1341" dy="1097" grid="1" gridSize="10" guides="1" tooltips="1" connect="1" arrows="1" fold="1" page="1" pageScale="1" pageWidth="850" pageHeight="950" math="0" shadow="0"><root><mxCell id="0"/><mxCell id="1" parent="0"/><mxCell id="kbeUP_Jf9FTYOOGWZM9g-33" value="" style="rounded=0;whiteSpace=wrap;html=1;pointerEvents=0;fontFamily=Helvetica;fontSize=12;fontColor=default;fillColor=#252a34;gradientColor=none;strokeColor=none;" parent="1" vertex="1"><mxGeometry width="850" height="950" as="geometry"/></mxCell><mxCell id="kbeUP_Jf9FTYOOGWZM9g-1" value="&lt;font size=&quot;1&quot; style=&quot;&quot;&gt;&lt;b style=&quot;font-size: 24px;&quot;&gt;Start&lt;/b&gt;&lt;/font&gt;" style="ellipse;whiteSpace=wrap;html=1;aspect=fixed;fillColor=#1ba1e2;fontColor=#ffffff;strokeColor=#006EAF;" parent="1" vertex="1"><mxGeometry x="63.86" y="20" width="166.27691048722144" height="166.27691048722144" as="geometry"/></mxCell><mxCell id="kbeUP_Jf9FTYOOGWZM9g-2" value="&lt;font size=&quot;1&quot; style=&quot;&quot;&gt;&lt;b style=&quot;font-size: 24px;&quot;&gt;Commit&lt;/b&gt;&lt;/font&gt;" style="ellipse;whiteSpace=wrap;html=1;aspect=fixed;fillColor=#60a917;fontColor=#ffffff;strokeColor=#2D7600;" parent="1" vertex="1"><mxGeometry x="64.86" y="763.8297872340424" width="166.27691048722144" height="166.27691048722144" as="geometry"/></mxCell><mxCell id="kbeUP_Jf9FTYOOGWZM9g-3" value="&lt;font style=&quot;font-size: 24px;&quot;&gt;Operation 1&lt;/font&gt;" style="rounded=1;whiteSpace=wrap;html=1;fontSize=32;fillColor=#1ba1e2;fontColor=#ffffff;strokeColor=#006EAF;" parent="1" vertex="1"><mxGeometry x="27" y="284.25531914893617" width="239.99999999999994" height="58.723404255319146" as="geometry"/></mxCell><mxCell id="kbeUP_Jf9FTYOOGWZM9g-5" style="edgeStyle=orthogonalEdgeStyle;rounded=0;orthogonalLoop=1;jettySize=auto;html=1;entryX=0.5;entryY=0;entryDx=0;entryDy=0;fontSize=32;strokeWidth=2;" parent="1" source="kbeUP_Jf9FTYOOGWZM9g-1" target="kbeUP_Jf9FTYOOGWZM9g-3" edge="1"><mxGeometry relative="1" as="geometry"/></mxCell><mxCell id="kbeUP_Jf9FTYOOGWZM9g-6" value="&lt;font style=&quot;font-size: 24px;&quot;&gt;Operation 2&lt;/font&gt;" style="rounded=1;whiteSpace=wrap;html=1;fontSize=32;fillColor=#1ba1e2;fontColor=#ffffff;strokeColor=#006EAF;" parent="1" vertex="1"><mxGeometry x="27" y="440.8510638297872" width="239.99999999999994" height="58.723404255319146" as="geometry"/></mxCell><mxCell id="kbeUP_Jf9FTYOOGWZM9g-7" style="edgeStyle=orthogonalEdgeStyle;rounded=0;orthogonalLoop=1;jettySize=auto;html=1;entryX=0.5;entryY=0;entryDx=0;entryDy=0;fontSize=32;strokeWidth=2;" parent="1" source="kbeUP_Jf9FTYOOGWZM9g-3" target="kbeUP_Jf9FTYOOGWZM9g-6" edge="1"><mxGeometry relative="1" as="geometry"/></mxCell><mxCell id="kbeUP_Jf9FTYOOGWZM9g-31" style="edgeStyle=orthogonalEdgeStyle;rounded=0;orthogonalLoop=1;jettySize=auto;html=1;entryX=0.5;entryY=0;entryDx=0;entryDy=0;fontSize=32;strokeWidth=2;" parent="1" source="kbeUP_Jf9FTYOOGWZM9g-8" target="kbeUP_Jf9FTYOOGWZM9g-2" edge="1"><mxGeometry relative="1" as="geometry"/></mxCell><mxCell id="kbeUP_Jf9FTYOOGWZM9g-8" value="&lt;font style=&quot;font-size: 24px;&quot;&gt;Operation N&lt;/font&gt;" style="rounded=1;whiteSpace=wrap;html=1;fontSize=32;fillColor=#1ba1e2;fontColor=#ffffff;strokeColor=#006EAF;" parent="1" vertex="1"><mxGeometry x="28" y="607.2340425531914" width="239.99999999999994" height="58.723404255319146" as="geometry"/></mxCell><mxCell id="kbeUP_Jf9FTYOOGWZM9g-9" style="edgeStyle=orthogonalEdgeStyle;rounded=0;orthogonalLoop=1;jettySize=auto;html=1;fontSize=32;strokeWidth=2;" parent="1" source="kbeUP_Jf9FTYOOGWZM9g-6" target="kbeUP_Jf9FTYOOGWZM9g-8" edge="1"><mxGeometry relative="1" as="geometry"/></mxCell><mxCell id="kbeUP_Jf9FTYOOGWZM9g-19" value="&lt;font size=&quot;1&quot; style=&quot;&quot;&gt;&lt;b style=&quot;font-size: 24px;&quot;&gt;Start&lt;/b&gt;&lt;/font&gt;" style="ellipse;whiteSpace=wrap;html=1;aspect=fixed;fillColor=#1ba1e2;fontColor=#ffffff;strokeColor=#006EAF;" parent="1" vertex="1"><mxGeometry x="373.85999999999996" y="20" width="166.27691048722144" height="166.27691048722144" as="geometry"/></mxCell><mxCell id="kbeUP_Jf9FTYOOGWZM9g-20" value="&lt;font size=&quot;1&quot; style=&quot;&quot;&gt;&lt;b style=&quot;font-size: 24px;&quot;&gt;Rollback&lt;/b&gt;&lt;/font&gt;" style="ellipse;whiteSpace=wrap;html=1;aspect=fixed;fillColor=#a20025;fontColor=#ffffff;strokeColor=#6F0000;" parent="1" vertex="1"><mxGeometry x="657" y="387.07765957446804" width="166.27691048722144" height="166.27691048722144" as="geometry"/></mxCell><mxCell id="kbeUP_Jf9FTYOOGWZM9g-22" value="&lt;font style=&quot;font-size: 24px;&quot;&gt;Operation 1&lt;/font&gt;" style="rounded=1;whiteSpace=wrap;html=1;fontSize=32;fillColor=#1ba1e2;fontColor=#ffffff;strokeColor=#006EAF;" parent="1" vertex="1"><mxGeometry x="337" y="284.25531914893617" width="239.99999999999994" height="58.723404255319146" as="geometry"/></mxCell><mxCell id="kbeUP_Jf9FTYOOGWZM9g-18" style="edgeStyle=orthogonalEdgeStyle;rounded=0;orthogonalLoop=1;jettySize=auto;html=1;entryX=0.5;entryY=0;entryDx=0;entryDy=0;fontSize=32;strokeWidth=2;" parent="1" source="kbeUP_Jf9FTYOOGWZM9g-19" target="kbeUP_Jf9FTYOOGWZM9g-22" edge="1"><mxGeometry relative="1" as="geometry"/></mxCell><mxCell id="kbeUP_Jf9FTYOOGWZM9g-27" style="edgeStyle=orthogonalEdgeStyle;rounded=0;orthogonalLoop=1;jettySize=auto;html=1;entryX=0;entryY=0.5;entryDx=0;entryDy=0;fontSize=32;strokeWidth=2;" parent="1" source="kbeUP_Jf9FTYOOGWZM9g-24" target="kbeUP_Jf9FTYOOGWZM9g-20" edge="1"><mxGeometry relative="1" as="geometry"/></mxCell><mxCell id="kbeUP_Jf9FTYOOGWZM9g-24" value="&lt;font style=&quot;font-size: 24px;&quot;&gt;Operation 2&lt;/font&gt;" style="rounded=1;whiteSpace=wrap;html=1;fontSize=32;fillColor=#1ba1e2;fontColor=#ffffff;strokeColor=#006EAF;" parent="1" vertex="1"><mxGeometry x="337" y="440.8510638297872" width="239.99999999999994" height="58.723404255319146" as="geometry"/></mxCell><mxCell id="kbeUP_Jf9FTYOOGWZM9g-21" style="edgeStyle=orthogonalEdgeStyle;rounded=0;orthogonalLoop=1;jettySize=auto;html=1;entryX=0.5;entryY=0;entryDx=0;entryDy=0;fontSize=32;strokeWidth=2;" parent="1" source="kbeUP_Jf9FTYOOGWZM9g-22" target="kbeUP_Jf9FTYOOGWZM9g-24" edge="1"><mxGeometry relative="1" as="geometry"/></mxCell><mxCell id="kbeUP_Jf9FTYOOGWZM9g-26" value="&lt;font style=&quot;font-size: 24px;&quot;&gt;Operation N&lt;/font&gt;" style="rounded=1;whiteSpace=wrap;html=1;fontSize=32;fillColor=#1ba1e2;fontColor=#ffffff;strokeColor=#006EAF;" parent="1" vertex="1"><mxGeometry x="337.99999999999994" y="607.2340425531914" width="239.99999999999994" height="58.723404255319146" as="geometry"/></mxCell></root></mxGraphModel></diagram></mxfile>